# xmcd
#
# Track frame offsets:
#	150
#	16071
#	31990
#	48115
#	74667
#	97124
#	116295
#	133859
#	156174
#	181747
#	206180
#	226798
#	246227
#	265979
#	288407
#	307340
#
# Disc length: 4400 seconds
#
# Revision: 2
# Processed by: cddbd v1.5.2PL0 Copyright (c) Steve Scherf et al.
# Submitted via: EasyCDDAExtractor 16.1.0.1
#
DISCID=e5112e10
DTITLE=Various  ‎–  Dance Paints 2 (Green)
DYEAR=1997
DGENRE=Euro-House
TTITLE0=Maxima - Move Your Body
TTITLE1=Room 42 - U Can't Run, U Can't Hide
TTITLE2=Micro Mania - Body Music
TTITLE3=Really-Zed - Everybody Loves Me (Extended)
TTITLE4=Lilly Hann - Bang Bang (Bang Mix)
TTITLE5=Flex - Come On Now
TTITLE6=Tpo - Ravers Of The Nation (Radio Version)
TTITLE7=Abbey - Neanderthal Man (Space Mix)
TTITLE8=Daytona - Love Is In Need (Extended Version)
TTITLE9=Ken Laszlo - Video Killed The Radio Star (F.T. Remix)
TTITLE10=D.J. Boy - Flash In The Night (Extended Mix)
TTITLE11=Sunny People - Koko Loco Bambam (Fiesta Mix)
TTITLE12=Raffa - You'll See (Bpm 136)
TTITLE13=Tom Hooker - Run Away (Extended Mix)
TTITLE14=Mar.Ko - Child (Happy Mix)
TTITLE15=Kikka - Sweet Dreams (The Original Club Mix)
EXTD=
EXTT0=
EXTT1=
EXTT2=
EXTT3=
EXTT4=
EXTT5=
EXTT6=
EXTT7=
EXTT8=
EXTT9=
EXTT10=
EXTT11=
EXTT12=
EXTT13=
EXTT14=
EXTT15=
PLAYORDER=
